<?xml version="1.0" standalone="no"?>
<!DOCTYPE svg PUBLIC "-//W3C//DTD SVG 20010904//EN"
 "http://www.w3.org/TR/2001/REC-SVG-20010904/DTD/svg10.dtd">
<svg version="1.0" xmlns="http://www.w3.org/2000/svg"
 width="50.000000pt" height="50.000000pt" viewBox="0 0 50.000000 50.000000"
 preserveAspectRatio="xMidYMid meet">

<g transform="translate(0.000000,50.000000) scale(0.100000,-0.100000)"
fill="#000000" stroke="none">
<path d="M155 456 c-60 -28 -87 -56 -114 -116 -36 -79 -19 -183 42 -249 33
-36 115 -71 167 -71 52 0 134 35 167 71 34 37 63 110 63 159 0 52 -35 134 -71
167 -37 34 -110 63 -159 63 -27 0 -65 -10 -95 -24z m180 -15 c128 -58 164
-223 72 -328 -101 -115 -283 -88 -348 52 -79 171 104 354 276 276z"/>
<path d="M220 285 c-27 -41 -50 -79 -50 -85 0 -5 22 -10 50 -10 47 0 50 -2 50
-25 0 -14 5 -25 10 -25 6 0 10 11 10 25 0 16 6 25 15 25 8 0 15 5 15 10 0 6
-7 10 -15 10 -12 0 -15 15 -15 75 0 42 -4 75 -10 75 -5 0 -32 -34 -60 -75z
m50 -20 l0 -55 -35 0 c-19 0 -35 2 -35 5 0 6 64 105 68 105 1 0 2 -25 2 -55z"/>
</g>
</svg>
