<?xml version="1.0" standalone="no"?>
<!DOCTYPE svg PUBLIC "-//W3C//DTD SVG 20010904//EN"
 "http://www.w3.org/TR/2001/REC-SVG-20010904/DTD/svg10.dtd">
<svg version="1.0" xmlns="http://www.w3.org/2000/svg"
 width="50.000000pt" height="50.000000pt" viewBox="0 0 50.000000 50.000000"
 preserveAspectRatio="xMidYMid meet">

<g transform="translate(0.000000,50.000000) scale(0.100000,-0.100000)"
fill="#000000" stroke="none">
<path d="M155 456 c-60 -28 -87 -56 -114 -116 -36 -79 -19 -183 42 -249 33
-36 115 -71 167 -71 52 0 134 35 167 71 34 37 63 110 63 159 0 52 -35 134 -71
167 -37 34 -110 63 -159 63 -27 0 -65 -10 -95 -24z m180 -15 c128 -58 164
-223 72 -328 -101 -115 -283 -88 -348 52 -79 171 104 354 276 276z"/>
<path d="M212 344 c-12 -8 -22 -22 -22 -30 0 -20 13 -17 28 7 15 24 50 22 66
-4 9 -15 6 -22 -14 -39 -17 -14 -21 -22 -12 -25 19 -7 42 -33 42 -48 0 -20
-28 -45 -50 -45 -19 0 -50 25 -50 41 0 5 -4 9 -10 9 -18 0 -11 -26 13 -48 30
-28 68 -28 95 1 26 28 28 54 5 79 -13 14 -14 21 -5 30 29 29 -3 88 -48 88 -9
0 -26 -7 -38 -16z"/>
</g>
</svg>
